<?xml version="1.0" encoding="UTF-8"?><svg id="Laag_1" xmlns="http://www.w3.org/2000/svg" viewBox="0 0 80 80"><defs><style>.cls-1{fill:#14387c;}</style></defs><path class="cls-1" d="m68.42,1.59h-32.12c-1.43,0-2.59,1.16-2.59,2.59v24.6H11.58c-1.43,0-2.58,1.16-2.58,2.59v44.48c0,1.42,1.15,2.58,2.58,2.58h56.83c1.43,0,2.58-1.16,2.58-2.58V4.17c0-1.43-1.15-2.58-2.58-2.59m-29.54,7.42v-2.25h26.96v66.49s-2.24,0-2.24,0v-7.3c0-1.42-1.15-2.58-2.58-2.58h-9.89c-1.43,0-2.58,1.15-2.58,2.58v7.3h-2.25V31.36c0-1.05-.62-1.96-1.53-2.36h1.42c1.43,0,2.58-1.16,2.58-2.58s-1.15-2.58-2.58-2.59h-7.3v-2.25h12.25c1.43,0,2.58-1.15,2.58-2.58s-1.15-2.58-2.58-2.59h-12.25v-2.25h17.19c1.43,0,2.58-1.16,2.58-2.58s-1.15-2.58-2.58-2.58h-17.19Zm-2.36,24.93h4.61v39.32h-9.66v-7.3c0-1.42-1.15-2.58-2.58-2.58h-9.88c-1.43,0-2.58,1.16-2.59,2.58v7.3h-2.25v-17.07h4.83c1.43,0,2.58-1.16,2.58-2.58s-1.15-2.58-2.58-2.58h-4.83v-2.25h9.78c1.43,0,2.58-1.16,2.58-2.58s-1.15-2.58-2.58-2.58h-9.78v-2.25h12.25c1.43,0,2.58-1.15,2.58-2.58s-1.15-2.58-2.58-2.59h-12.25v-2.25h22.35Zm17.18,39.32v-4.72h4.72v4.72h-4.72Zm-32.13,0v-4.72h4.72v4.72h-4.72Z"/></svg>