<?xml version="1.0" encoding="utf-8"?>
<!-- Generator: Adobe Illustrator 25.2.0, SVG Export Plug-In . SVG Version: 6.00 Build 0)  -->
<svg version="1.1" id="Layer_1" xmlns="http://www.w3.org/2000/svg" xmlns:xlink="http://www.w3.org/1999/xlink" x="0px" y="0px"
	 viewBox="0 0 18 15" style="enable-background:new 0 0 18 15;" xml:space="preserve">
<style type="text/css">
	.st0{fill:white;}
</style>
<path class="st0" d="M4.5,7.8h2.7V15H0V9.6c0-2.1,0.2-3.7,0.7-4.9c0.5-1.1,1.3-2.2,2.4-3.1C4.2,0.7,5.6,0.1,7.2,0v2.7
	C6.2,3,5.5,3.5,5.1,4.4C4.7,5.2,4.5,6.1,4.5,7V7.8z M15.3,7.8H18V15h-7.2V9.6c0-2.1,0.2-3.7,0.7-4.9c0.5-1.1,1.3-2.2,2.4-3.1
	C15,0.7,16.4,0.1,18,0v2.7c-1,0.3-1.7,0.8-2.1,1.7c-0.4,0.8-0.6,1.7-0.6,2.7V7.8z"/>
</svg>
